<svg xmlns="http://www.w3.org/2000/svg" width="25" height="24" fill="none" xmlns:v="https://vecta.io/nano"><path d="M12.5 0C5.594 0 0 5.509 0 12.305c0 5.438 3.581 10.049 8.547 11.674.625.116.854-.265.854-.592l-.016-2.092c-3.477.742-4.21-1.651-4.21-1.651-.569-1.42-1.391-1.8-1.391-1.8-1.132-.763.088-.747.088-.747 1.255.086 1.915 1.268 1.915 1.268 1.115 1.881 2.926 1.338 3.641 1.024.113-.796.434-1.338.792-1.646-2.776-.308-5.694-1.366-5.694-6.08 0-1.343.484-2.441 1.286-3.302-.141-.311-.562-1.562.109-3.257 0 0 1.047-.33 3.438 1.262 1-.273 2.062-.409 3.125-.415 1.063.006 2.125.142 3.125.415 2.375-1.591 3.422-1.262 3.422-1.262.672 1.695.25 2.946.125 3.257.797.861 1.281 1.959 1.281 3.302 0 4.727-2.922 5.767-5.703 6.07.438.369.844 1.124.844 2.277l-.016 3.369c0 .322.219.707.859.584C21.422 22.348 25 17.734 25 12.305 25 5.509 19.403 0 12.5 0h0z" fill="#fff"/></svg>