<svg xmlns="http://www.w3.org/2000/svg" width="24" height="24" fill="none" xmlns:v="https://vecta.io/nano"><path fill-rule="evenodd" d="M2.4 0h19.2A2.41 2.41 0 0 1 24 2.4v19.2a2.41 2.41 0 0 1-2.4 2.4H2.4A2.41 2.41 0 0 1 0 21.6V2.4A2.41 2.41 0 0 1 2.4 0zm1.2 20.4h3.6V9.6H3.6v10.8zM5.4 7.56A2.15 2.15 0 0 1 3.24 5.4 2.15 2.15 0 0 1 5.4 3.24 2.15 2.15 0 0 1 7.56 5.4 2.15 2.15 0 0 1 5.4 7.56zM16.8 20.4h3.6v-6.84c0-2.28-1.92-4.2-4.2-4.2-1.08 0-2.4.72-3 1.68V9.6H9.6v10.8h3.6v-6.36a1.85 1.85 0 0 1 1.8-1.8 1.85 1.85 0 0 1 1.8 1.8v6.36z" fill="#fff"/></svg>